HIERARCHY
ROOT hip
{
OFFSET -2.10 94.16 8.30
CHANNELS 6 Xposition Yposition Zposition Zrotation Xrotation Yrotation
JOINT abdomen
{
OFFSET 0 7.23 0
CHANNELS 6 Xposition Yposition Zposition Zrotation Xrotation Yrotation
JOINT chest
{
OFFSET 0 16.54 0
CHANNELS 6 Xposition Yposition Zposition Zrotation Xrotation Yrotation
JOINT neck
{
OFFSET 0 34.21 0
CHANNELS 6 Xposition Yposition Zposition Zrotation Xrotation Yrotation
JOINT head
{
OFFSET 0 6.29 0
CHANNELS 6 Xposition Yposition Zposition Zrotation Xrotation Yrotation
End Site
{
OFFSET 0 21.21 0
}
}
}
JOINT lCollar
{
OFFSET 4.06 26.61 -1.12
CHANNELS 6 Xposition Yposition Zposition Zrotation Xrotation Yrotation
JOINT lShldr
{
OFFSET 14.17 0 0
CHANNELS 6 Xposition Yposition Zposition Zrotation Xrotation Yrotation
JOINT lForeArm
{
OFFSET 26.12 0 0
CHANNELS 6 Xposition Yposition Zposition Zrotation Xrotation Yrotation
JOINT lHand
{
OFFSET 27.71 0 0
CHANNELS 6 Xposition Yposition Zposition Zrotation Xrotation Yrotation
JOINT lThumb1
{
OFFSET 2.29 -0.46 1.83
CHANNELS 6 Xposition Yposition Zposition Zrotation Xrotation Yrotation
JOINT lThumb2
{
OFFSET 5.29 0 0
CHANNELS 6 Xposition Yposition Zposition Zrotation Xrotation Yrotation
JOINT lThumb3
{
OFFSET 3.01 0 0
CHANNELS 6 Xposition Yposition Zposition Zrotation Xrotation Yrotation
End Site
{
OFFSET 2.62 0 0
}
}
}
}
JOINT lIndex1
{
OFFSET 9.37 0.29 2.59
CHANNELS 6 Xposition Yposition Zposition Zrotation Xrotation Yrotation
JOINT lIndex2
{
OFFSET 4.34 0 0
CHANNELS 6 Xposition Yposition Zposition Zrotation Xrotation Yrotation
JOINT lIndex3
{
OFFSET 2.16 0 0
CHANNELS 6 Xposition Yposition Zposition Zrotation Xrotation Yrotation
End Site
{
OFFSET 2.20 0 0
}
}
}
}
JOINT lMid1
{
OFFSET 9.47 0.83 0.29
CHANNELS 6 Xposition Yposition Zposition Zrotation Xrotation Yrotation
JOINT lMid2
{
OFFSET 4.77 0 0
CHANNELS 6 Xposition Yposition Zposition Zrotation Xrotation Yrotation
JOINT lMid3
{
OFFSET 2.87 0 0
CHANNELS 6 Xposition Yposition Zposition Zrotation Xrotation Yrotation
End Site
{
OFFSET 2.09 0 0
}
}
}
}
JOINT lRing1
{
OFFSET 8.65 1.01 -1.70
CHANNELS 6 Xposition Yposition Zposition Zrotation Xrotation Yrotation
JOINT lRing2
{
OFFSET 4.54 0 0
CHANNELS 6 Xposition Yposition Zposition Zrotation Xrotation Yrotation
JOINT lRing3
{
OFFSET 2.50 0 0
CHANNELS 6 Xposition Yposition Zposition Zrotation Xrotation Yrotation
End Site
{
OFFSET 2.20 0 0
}
}
}
}
JOINT lPinky1
{
OFFSET 7.69 0.66 -3.90
CHANNELS 6 Xposition Yposition Zposition Zrotation Xrotation Yrotation
JOINT lPinky2
{
OFFSET 3.21 0 0
CHANNELS 6 Xposition Yposition Zposition Zrotation Xrotation Yrotation
JOINT lPinky3
{
OFFSET 1.92 0 0
CHANNELS 6 Xposition Yposition Zposition Zrotation Xrotation Yrotation
End Site
{
OFFSET 1.78 0 0
}
}
}
}
}
}
}
}
JOINT rCollar
{
OFFSET -4.06 26.61 -1.12
CHANNELS 6 Xposition Yposition Zposition Zrotation Xrotation Yrotation
JOINT rShldr
{
OFFSET -14.17 0 0
CHANNELS 6 Xposition Yposition Zposition Zrotation Xrotation Yrotation
JOINT rForeArm
{
OFFSET -26.12 0 0
CHANNELS 6 Xposition Yposition Zposition Zrotation Xrotation Yrotation
JOINT rHand
{
OFFSET -27.71 0 0
CHANNELS 6 Xposition Yposition Zposition Zrotation Xrotation Yrotation
JOINT rThumb1
{
OFFSET -2.29 -0.46 1.83
CHANNELS 6 Xposition Yposition Zposition Zrotation Xrotation Yrotation
JOINT rThumb2
{
OFFSET -5.29 0 0
CHANNELS 6 Xposition Yposition Zposition Zrotation Xrotation Yrotation
JOINT rThumb3
{
OFFSET -3.01 0 0
CHANNELS 6 Xposition Yposition Zposition Zrotation Xrotation Yrotation
End Site
{
OFFSET -2.62 0 0
}
}
}
}
JOINT rIndex1
{
OFFSET -9.37 0.29 2.59
CHANNELS 6 Xposition Yposition Zposition Zrotation Xrotation Yrotation
JOINT rIndex2
{
OFFSET -4.34 0 0
CHANNELS 6 Xposition Yposition Zposition Zrotation Xrotation Yrotation
JOINT rIndex3
{
OFFSET -2.16 0 0
CHANNELS 6 Xposition Yposition Zposition Zrotation Xrotation Yrotation
End Site
{
OFFSET -2.20 0 0
}
}
}
}
JOINT rMid1
{
OFFSET -9.47 0.83 0.29
CHANNELS 6 Xposition Yposition Zposition Zrotation Xrotation Yrotation
JOINT rMid2
{
OFFSET -4.77 0 0
CHANNELS 6 Xposition Yposition Zposition Zrotation Xrotation Yrotation
JOINT rMid3
{
OFFSET -2.87 0 0
CHANNELS 6 Xposition Yposition Zposition Zrotation Xrotation Yrotation
End Site
{
OFFSET -2.09 0 0
}
}
}
}
JOINT rRing1
{
OFFSET -8.65 1.01 -1.70
CHANNELS 6 Xposition Yposition Zposition Zrotation Xrotation Yrotation
JOINT rRing2
{
OFFSET -4.54 0 0
CHANNELS 6 Xposition Yposition Zposition Zrotation Xrotation Yrotation
JOINT rRing3
{
OFFSET -2.50 0 0
CHANNELS 6 Xposition Yposition Zposition Zrotation Xrotation Yrotation
End Site
{
OFFSET -2.20 0 0
}
}
}
}
JOINT rPinky1
{
OFFSET -7.69 0.66 -3.90
CHANNELS 6 Xposition Yposition Zposition Zrotation Xrotation Yrotation
JOINT rPinky2
{
OFFSET -3.21 0 0
CHANNELS 6 Xposition Yposition Zposition Zrotation Xrotation Yrotation
JOINT rPinky3
{
OFFSET -1.92 0 0
CHANNELS 6 Xposition Yposition Zposition Zrotation Xrotation Yrotation
End Site
{
OFFSET -1.78 0 0
}
}
}
}
}
}
}
}
}
}
JOINT lThigh
{
OFFSET 8.73 -0 0
CHANNELS 6 Xposition Yposition Zposition Zrotation Xrotation Yrotation
JOINT lShin
{
OFFSET 0 -46.66 0
CHANNELS 6 Xposition Yposition Zposition Zrotation Xrotation Yrotation
JOINT lFoot
{
OFFSET 0 -40.14 0
CHANNELS 6 Xposition Yposition Zposition Zrotation Xrotation Yrotation
JOINT lToes
{
OFFSET 0 -8.88 14.22
CHANNELS 6 Xposition Yposition Zposition Zrotation Xrotation Yrotation
End Site
{
OFFSET 0 0 6.29
}
}
}
}
}
JOINT rThigh
{
OFFSET -8.73 0 -0
CHANNELS 6 Xposition Yposition Zposition Zrotation Xrotation Yrotation
JOINT rShin
{
OFFSET 0 -46.66 0
CHANNELS 6 Xposition Yposition Zposition Zrotation Xrotation Yrotation
JOINT rFoot
{
OFFSET 0 -40.14 0
CHANNELS 6 Xposition Yposition Zposition Zrotation Xrotation Yrotation
JOINT rToes
{
OFFSET 0 -8.88 14.22
CHANNELS 6 Xposition Yposition Zposition Zrotation Xrotation Yrotation
End Site
{
OFFSET 0 0 6.29
}
}
}
}
}
}
MOTION
Frames: 8
Frame Time: 0.03
-2.10 94.16 8.30 -0.58 -4.64 0.98 0 7.23 0 -0.52 -0.21 -0.76 0 16.54 0 -1.19 1.42 -1.41 0 34.21 0 3.30 33.29 -1.20 0 6.29 0 0.54 -32.00 -0.08 4.06 26.61 -1.12 -3.82 -4.25 5.17 14.17 0 0 -74.87 19.36 8.55 26.12 0 0 -0.45 0.12 -31.87 27.71 0 0 -14.60 -4.27 15.60 2.29 -0.46 1.83 7.08 70.46 -47.71 5.29 0 0 0.01 8.09 23.22 3.01 0 0 14.13 -2.49 0.30 9.37 0.29 2.59 -22.98 -1.89 0.06 4.34 0 0 -32.46 -1.76 6.98 2.16 0 0 -13.75 -0.35 2.54 9.47 0.83 0.29 -19.99 -4.53 3.05 4.77 0 0 -41.66 -3.98 10.68 2.87 0 0 -6.87 -0 3.39 8.65 1.01 -1.70 -23.28 1.99 7.76 4.54 0 0 -29.27 -1.14 4.38 2.50 0 0 -1.27 0.05 1.25 7.69 0.66 -3.90 -25.80 -9.44 10.97 3.21 0 0 -23.44 -0.05 4.37 1.92 0 0 -3.79 0.01 3.01 -4.06 26.61 -1.12 -0.04 -4.28 -1.57 -14.17 0 0 80.34 19.91 -11.00 -26.12 0 0 0.31 0.06 21.58 -27.71 0 0 22.27 8.88 -4.68 -2.29 -0.46 1.83 -65.71 74.80 95.92 -5.29 0 0 13.51 -14.96 -12.44 -3.01 0 0 -22.16 -4.38 -8.06 -9.37 0.29 2.59 13.71 -1.27 7.17 -4.34 0 0 17.86 -0.35 -4.00 -2.16 0 0 22.42 -0.95 -4.39 -9.47 0.83 0.29 14.37 -4.24 0.86 -4.77 0 0 29.95 -2.06 -8.03 -2.87 0 0 9.37 -0.06 -4.09 -8.65 1.01 -1.70 13.81 2.48 -5.34 -4.54 0 0 34.97 -1.63 -5.17 -2.50 0 0 2.22 -0.06 -1.42 -7.69 0.66 -3.90 20.62 -9.20 -4.18 -3.21 0 0 22.94 -1.68 -8.27 -1.92 0 0 5.28 -0.02 -3.57 8.73 -0 0 6.14 -1.56 22.74 0 -46.66 0 4.94 25.67 -10.65 0 -40.14 0 -3.72 -18.70 7.42 0 -8.88 14.22 0 0 -0 -8.73 0 -0 -4.26 -1.90 -15.46 0 -46.66 0 -3.44 24.91 -1.38 0 -40.14 0 6.43 -16.91 -6.97 0 -8.88 14.22 0 0 -0 
-2.10 94.16 8.27 -0.58 -4.65 0.96 0 7.23 0 -0.52 -0.22 -0.75 0 16.54 0 -1.19 1.42 -1.40 0 34.21 0 3.26 33.44 -1.20 0 6.29 0 0.63 -31.23 -0.08 4.06 26.61 -1.12 -3.86 -4.25 5.18 14.17 0 0 -74.82 19.43 8.56 26.12 0 0 -0.45 0.13 -31.95 27.71 0 0 -14.60 -4.27 15.60 2.29 -0.46 1.83 7.08 70.48 -47.73 5.29 0 0 0.02 8.09 23.22 3.01 0 0 14.13 -2.49 0.30 9.37 0.29 2.59 -22.99 -1.89 0.07 4.34 0 0 -32.42 -1.75 6.98 2.16 0 0 -13.76 -0.35 2.54 9.47 0.83 0.29 -19.98 -4.53 3.04 4.77 0 0 -41.66 -3.98 10.68 2.87 0 0 -6.87 -0 3.39 8.65 1.01 -1.70 -23.28 1.99 7.77 4.54 0 0 -29.27 -1.14 4.38 2.50 0 0 -1.27 0.05 1.25 7.69 0.66 -3.90 -25.82 -9.44 10.96 3.21 0 0 -23.44 -0.05 4.38 1.92 0 0 -3.79 0.01 3.01 -4.06 26.61 -1.12 -0.07 -4.28 -1.53 -14.17 0 0 80.39 19.86 -11.00 -26.12 0 0 0.31 0.06 21.55 -27.71 0 0 22.28 8.90 -4.69 -2.29 -0.46 1.83 -65.70 74.79 95.92 -5.29 0 0 13.51 -14.96 -12.45 -3.01 0 0 -22.16 -4.38 -8.06 -9.37 0.29 2.59 13.70 -1.27 7.16 -4.34 0 0 17.86 -0.35 -4.00 -2.16 0 0 22.42 -0.95 -4.39 -9.47 0.83 0.29 14.38 -4.24 0.85 -4.77 0 0 29.95 -2.06 -8.03 -2.87 0 0 9.37 -0.06 -4.09 -8.65 1.01 -1.70 13.83 2.48 -5.34 -4.54 0 0 34.97 -1.63 -5.17 -2.50 0 0 2.22 -0.06 -1.42 -7.69 0.66 -3.90 20.62 -9.20 -4.16 -3.21 0 0 22.95 -1.68 -8.28 -1.92 0 0 5.28 -0.02 -3.57 8.73 -0 0 6.15 -1.57 22.75 0 -46.66 0 4.93 25.68 -10.65 0 -40.14 0 -3.71 -18.68 7.42 0 -8.88 14.22 0 0 0 -8.73 0 -0 -4.25 -1.92 -15.45 0 -46.66 0 -3.45 24.91 -1.37 0 -40.14 0 6.42 -16.89 -6.97 0 -8.88 14.22 0 0 0 
-2.10 94.16 8.24 -0.58 -4.67 0.95 0 7.23 0 -0.53 -0.22 -0.75 0 16.54 0 -1.19 1.41 -1.40 0 34.21 0 3.23 33.60 -1.21 0 6.29 0 0.70 -30.29 -0.10 4.06 26.61 -1.12 -3.90 -4.24 5.15 14.17 0 0 -74.77 19.41 8.57 26.12 0 0 -0.45 0.13 -31.98 27.71 0 0 -14.60 -4.27 15.60 2.29 -0.46 1.83 7.07 70.51 -47.75 5.29 0 0 0.02 8.09 23.22 3.01 0 0 14.13 -2.49 0.31 9.37 0.29 2.59 -23.00 -1.89 0.07 4.34 0 0 -32.39 -1.75 6.97 2.16 0 0 -13.77 -0.35 2.54 9.47 0.83 0.29 -19.97 -4.52 3.04 4.77 0 0 -41.67 -3.98 10.68 2.87 0 0 -6.88 -0 3.39 8.65 1.01 -1.70 -23.29 1.99 7.77 4.54 0 0 -29.28 -1.14 4.38 2.50 0 0 -1.27 0.05 1.25 7.69 0.66 -3.90 -25.83 -9.44 10.96 3.21 0 0 -23.45 -0.06 4.38 1.92 0 0 -3.79 0.01 3.01 -4.06 26.61 -1.12 -0.06 -4.28 -1.51 -14.17 0 0 80.38 19.92 -11.04 -26.12 0 0 0.31 0.06 21.61 -27.71 0 0 22.28 8.81 -4.68 -2.29 -0.46 1.83 -65.68 74.78 95.91 -5.29 0 0 13.51 -14.97 -12.46 -3.01 0 0 -22.16 -4.38 -8.07 -9.37 0.29 2.59 13.69 -1.27 7.15 -4.34 0 0 17.86 -0.35 -4.01 -2.16 0 0 22.42 -0.95 -4.39 -9.47 0.83 0.29 14.37 -4.24 0.85 -4.77 0 0 29.96 -2.06 -8.03 -2.87 0 0 9.37 -0.06 -4.09 -8.65 1.01 -1.70 13.84 2.47 -5.35 -4.54 0 0 34.97 -1.63 -5.17 -2.50 0 0 2.22 -0.06 -1.42 -7.69 0.66 -3.90 20.62 -9.20 -4.15 -3.21 0 0 22.96 -1.68 -8.28 -1.92 0 0 5.28 -0.02 -3.57 8.73 -0 0 6.14 -1.57 22.74 0 -46.66 0 4.94 25.70 -10.63 0 -40.14 0 -3.71 -18.68 7.42 0 -8.88 14.22 0 0 -0 -8.73 0 -0 -4.25 -1.92 -15.45 0 -46.66 0 -3.45 24.93 -1.36 0 -40.14 0 6.42 -16.88 -6.97 0 -8.88 14.22 0 0 0 
-2.10 94.16 8.21 -0.57 -4.71 0.97 0 7.23 0 -0.53 -0.22 -0.75 0 16.54 0 -1.20 1.42 -1.40 0 34.21 0 3.22 33.76 -1.23 0 6.29 0 0.69 -29.13 -0.15 4.06 26.61 -1.12 -3.91 -4.24 5.08 14.17 0 0 -74.79 19.28 8.60 26.12 0 0 -0.45 0.13 -31.94 27.71 0 0 -14.60 -4.27 15.60 2.29 -0.46 1.83 7.07 70.52 -47.75 5.29 0 0 0.01 8.09 23.22 3.01 0 0 14.13 -2.49 0.31 9.37 0.29 2.59 -23.00 -1.89 0.06 4.34 0 0 -32.40 -1.75 6.97 2.16 0 0 -13.77 -0.35 2.54 9.47 0.83 0.29 -19.96 -4.52 3.03 4.77 0 0 -41.67 -3.98 10.68 2.87 0 0 -6.88 -0 3.39 8.65 1.01 -1.70 -23.28 1.99 7.76 4.54 0 0 -29.28 -1.14 4.38 2.50 0 0 -1.27 0.06 1.25 7.69 0.66 -3.90 -25.82 -9.44 10.96 3.21 0 0 -23.45 -0.06 4.38 1.92 0 0 -3.80 0.01 3.01 -4.06 26.61 -1.12 -0.02 -4.27 -1.50 -14.17 0 0 80.32 19.99 -11.08 -26.12 0 0 0.31 0.06 21.69 -27.71 0 0 22.29 8.71 -4.67 -2.29 -0.46 1.83 -65.66 74.77 95.91 -5.29 0 0 13.50 -14.98 -12.47 -3.01 0 0 -22.16 -4.38 -8.07 -9.37 0.29 2.59 13.69 -1.27 7.15 -4.34 0 0 17.86 -0.35 -4.01 -2.16 0 0 22.42 -0.95 -4.39 -9.47 0.83 0.29 14.38 -4.24 0.85 -4.77 0 0 29.96 -2.06 -8.04 -2.87 0 0 9.37 -0.06 -4.09 -8.65 1.01 -1.70 13.85 2.47 -5.36 -4.54 0 0 34.97 -1.63 -5.17 -2.50 0 0 2.22 -0.06 -1.42 -7.69 0.66 -3.90 20.63 -9.20 -4.16 -3.21 0 0 22.96 -1.68 -8.28 -1.92 0 0 5.28 -0.02 -3.57 8.73 -0 0 6.14 -1.58 22.74 0 -46.66 0 4.95 25.74 -10.64 0 -40.14 0 -3.70 -18.67 7.42 0 -8.88 14.22 0 0 0 -8.73 0 -0 -4.26 -1.93 -15.45 0 -46.66 0 -3.47 24.97 -1.37 0 -40.14 0 6.43 -16.88 -6.97 0 -8.88 14.22 0 0 -0 
-2.11 94.16 8.17 -0.58 -4.75 0.98 0 7.23 0 -0.53 -0.22 -0.76 0 16.54 0 -1.20 1.42 -1.41 0 34.21 0 3.21 33.92 -1.26 0 6.29 0 0.62 -27.77 -0.22 4.06 26.61 -1.12 -3.87 -4.24 5.00 14.17 0 0 -74.87 19.13 8.65 26.12 0 0 -0.45 0.12 -31.87 27.71 0 0 -14.60 -4.27 15.60 2.29 -0.46 1.83 7.07 70.50 -47.71 5.29 0 0 0.01 8.08 23.21 3.01 0 0 14.13 -2.49 0.31 9.37 0.29 2.59 -23.00 -1.89 0.06 4.34 0 0 -32.41 -1.75 6.97 2.16 0 0 -13.76 -0.35 2.54 9.47 0.83 0.29 -19.96 -4.52 3.02 4.77 0 0 -41.68 -3.98 10.68 2.87 0 0 -6.87 -0 3.39 8.65 1.01 -1.70 -23.28 1.99 7.76 4.54 0 0 -29.28 -1.14 4.38 2.50 0 0 -1.27 0.06 1.25 7.69 0.66 -3.90 -25.81 -9.44 10.97 3.21 0 0 -23.45 -0.06 4.38 1.92 0 0 -3.80 0.01 3.01 -4.06 26.61 -1.12 0.01 -4.27 -1.48 -14.17 0 0 80.27 19.99 -11.10 -26.12 0 0 0.31 0.06 21.71 -27.71 0 0 22.29 8.70 -4.67 -2.29 -0.46 1.83 -65.67 74.77 95.91 -5.29 0 0 13.50 -14.98 -12.48 -3.01 0 0 -22.16 -4.38 -8.06 -9.37 0.29 2.59 13.69 -1.27 7.16 -4.34 0 0 17.86 -0.35 -4.00 -2.16 0 0 22.42 -0.95 -4.39 -9.47 0.83 0.29 14.40 -4.24 0.85 -4.77 0 0 29.97 -2.06 -8.04 -2.87 0 0 9.37 -0.06 -4.09 -8.65 1.01 -1.70 13.87 2.47 -5.37 -4.54 0 0 34.96 -1.63 -5.17 -2.50 0 0 2.21 -0.06 -1.42 -7.69 0.66 -3.90 20.64 -9.20 -4.16 -3.21 0 0 22.96 -1.68 -8.28 -1.92 0 0 5.28 -0.02 -3.57 8.73 -0 0 6.15 -1.57 22.74 0 -46.66 0 4.96 25.74 -10.68 0 -40.14 0 -3.70 -18.65 7.43 0 -8.88 14.22 0 0 -0 -8.73 0 -0 -4.24 -1.90 -15.43 0 -46.66 0 -3.48 24.96 -1.40 0 -40.14 0 6.43 -16.86 -6.97 0 -8.88 14.22 0 0 0 
-2.11 94.16 8.13 -0.58 -4.80 0.99 0 7.23 0 -0.52 -0.21 -0.76 0 16.54 0 -1.19 1.43 -1.43 0 34.21 0 3.21 34.06 -1.28 0 6.29 0 0.52 -26.23 -0.27 4.06 26.61 -1.12 -3.85 -4.23 4.95 14.17 0 0 -74.95 19.11 8.72 26.12 0 0 -0.45 0.12 -31.84 27.71 0 0 -14.60 -4.27 15.60 2.29 -0.46 1.83 7.07 70.46 -47.68 5.29 0 0 0.01 8.08 23.22 3.01 0 0 14.13 -2.49 0.31 9.37 0.29 2.59 -23.00 -1.89 0.06 4.34 0 0 -32.43 -1.75 6.98 2.16 0 0 -13.75 -0.35 2.54 9.47 0.83 0.29 -19.97 -4.53 3.02 4.77 0 0 -41.68 -3.98 10.68 2.87 0 0 -6.86 -0 3.39 8.65 1.01 -1.70 -23.28 1.99 7.75 4.54 0 0 -29.28 -1.14 4.38 2.50 0 0 -1.27 0.06 1.25 7.69 0.66 -3.90 -25.80 -9.44 10.97 3.21 0 0 -23.45 -0.06 4.38 1.92 0 0 -3.80 0.01 3.01 -4.06 26.61 -1.12 0.01 -4.27 -1.46 -14.17 0 0 80.25 19.94 -11.11 -26.12 0 0 0.31 0.06 21.68 -27.71 0 0 22.27 8.73 -4.66 -2.29 -0.46 1.83 -65.69 74.78 95.91 -5.29 0 0 13.50 -14.98 -12.48 -3.01 0 0 -22.16 -4.38 -8.05 -9.37 0.29 2.59 13.70 -1.27 7.17 -4.34 0 0 17.85 -0.35 -4.00 -2.16 0 0 22.41 -0.95 -4.39 -9.47 0.83 0.29 14.40 -4.24 0.84 -4.77 0 0 29.97 -2.06 -8.04 -2.87 0 0 9.36 -0.06 -4.09 -8.65 1.01 -1.70 13.88 2.47 -5.37 -4.54 0 0 34.95 -1.63 -5.17 -2.50 0 0 2.21 -0.06 -1.42 -7.69 0.66 -3.90 20.65 -9.20 -4.16 -3.21 0 0 22.96 -1.68 -8.28 -1.92 0 0 5.28 -0.02 -3.57 8.73 -0 0 6.15 -1.55 22.74 0 -46.66 0 4.98 25.74 -10.69 0 -40.14 0 -3.70 -18.63 7.43 0 -8.88 14.22 0 0 -0 -8.73 0 -0 -4.23 -1.88 -15.43 0 -46.66 0 -3.48 24.95 -1.41 0 -40.14 0 6.42 -16.83 -6.98 0 -8.88 14.22 0 0 -0 
-2.11 94.16 8.09 -0.58 -4.83 1.01 0 7.23 0 -0.52 -0.21 -0.77 0 16.54 0 -1.17 1.44 -1.44 0 34.21 0 3.19 34.17 -1.30 0 6.29 0 0.43 -24.57 -0.32 4.06 26.61 -1.12 -3.88 -4.23 4.95 14.17 0 0 -74.95 19.24 8.80 26.12 0 0 -0.45 0.13 -31.90 27.71 0 0 -14.60 -4.27 15.60 2.29 -0.46 1.83 7.08 70.43 -47.66 5.29 0 0 0.01 8.08 23.22 3.01 0 0 14.13 -2.49 0.31 9.37 0.29 2.59 -23.00 -1.89 0.07 4.34 0 0 -32.46 -1.76 6.98 2.16 0 0 -13.75 -0.35 2.54 9.47 0.83 0.29 -19.98 -4.53 3.02 4.77 0 0 -41.68 -3.98 10.68 2.87 0 0 -6.87 -0 3.39 8.65 1.01 -1.70 -23.28 1.99 7.75 4.54 0 0 -29.28 -1.14 4.38 2.50 0 0 -1.27 0.06 1.25 7.69 0.66 -3.90 -25.80 -9.44 10.97 3.21 0 0 -23.44 -0.05 4.38 1.92 0 0 -3.80 0.01 3.02 -4.06 26.61 -1.12 -0 -4.27 -1.47 -14.17 0 0 80.27 19.91 -11.12 -26.12 0 0 0.31 0.06 21.66 -27.71 0 0 22.27 8.75 -4.65 -2.29 -0.46 1.83 -65.67 74.78 95.89 -5.29 0 0 13.50 -14.98 -12.48 -3.01 0 0 -22.16 -4.38 -8.05 -9.37 0.29 2.59 13.70 -1.27 7.17 -4.34 0 0 17.85 -0.35 -4.00 -2.16 0 0 22.42 -0.95 -4.39 -9.47 0.83 0.29 14.40 -4.24 0.85 -4.77 0 0 29.97 -2.06 -8.04 -2.87 0 0 9.36 -0.06 -4.09 -8.65 1.01 -1.70 13.90 2.47 -5.38 -4.54 0 0 34.94 -1.62 -5.17 -2.50 0 0 2.20 -0.06 -1.42 -7.69 0.66 -3.90 20.66 -9.20 -4.16 -3.21 0 0 22.96 -1.68 -8.28 -1.92 0 0 5.28 -0.02 -3.57 8.73 -0 0 6.16 -1.56 22.73 0 -46.66 0 4.98 25.78 -10.69 0 -40.14 0 -3.69 -18.61 7.43 0 -8.88 14.22 0 0 0 -8.73 0 -0 -4.23 -1.88 -15.43 0 -46.66 0 -3.49 24.98 -1.40 0 -40.14 0 6.41 -16.82 -6.98 0 -8.88 14.22 0 0 0 
-2.12 94.16 8.05 -0.59 -4.87 1.01 0 7.23 0 -0.51 -0.20 -0.77 0 16.54 0 -1.16 1.45 -1.44 0 34.21 0 3.18 34.27 -1.32 0 6.29 0 0.38 -22.96 -0.36 4.06 26.61 -1.12 -3.91 -4.23 4.96 14.17 0 0 -74.94 19.37 8.88 26.12 0 0 -0.45 0.13 -31.96 27.71 0 0 -14.60 -4.27 15.60 2.29 -0.46 1.83 7.09 70.41 -47.65 5.29 0 0 0.01 8.08 23.22 3.01 0 0 14.13 -2.49 0.31 9.37 0.29 2.59 -23.00 -1.89 0.07 4.34 0 0 -32.45 -1.75 6.98 2.16 0 0 -13.75 -0.35 2.54 9.47 0.83 0.29 -19.98 -4.53 3.02 4.77 0 0 -41.67 -3.98 10.68 2.87 0 0 -6.88 -0 3.39 8.65 1.01 -1.70 -23.28 1.99 7.74 4.54 0 0 -29.28 -1.14 4.38 2.50 0 0 -1.26 0.06 1.25 7.69 0.66 -3.90 -25.80 -9.44 10.96 3.21 0 0 -23.43 -0.05 4.37 1.92 0 0 -3.80 0.01 3.02 -4.06 26.61 -1.12 -0 -4.27 -1.47 -14.17 0 0 80.30 19.90 -11.15 -26.12 0 0 0.31 0.06 21.66 -27.71 0 0 22.29 8.78 -4.65 -2.29 -0.46 1.83 -65.63 74.76 95.85 -5.29 0 0 13.50 -14.98 -12.47 -3.01 0 0 -22.16 -4.38 -8.06 -9.37 0.29 2.59 13.71 -1.27 7.18 -4.34 0 0 17.85 -0.35 -4.00 -2.16 0 0 22.42 -0.95 -4.39 -9.47 0.83 0.29 14.42 -4.24 0.85 -4.77 0 0 29.96 -2.06 -8.03 -2.87 0 0 9.36 -0.06 -4.09 -8.65 1.01 -1.70 13.91 2.47 -5.40 -4.54 0 0 34.94 -1.62 -5.17 -2.50 0 0 2.20 -0.06 -1.42 -7.69 0.66 -3.90 20.67 -9.20 -4.18 -3.21 0 0 22.97 -1.68 -8.28 -1.92 0 0 5.28 -0.02 -3.57 8.73 -0 0 6.18 -1.58 22.74 0 -46.66 0 4.98 25.81 -10.69 0 -40.14 0 -3.68 -18.60 7.43 0 -8.88 14.22 0 0 -0 -8.73 0 -0 -4.22 -1.89 -15.42 0 -46.66 0 -3.49 25.00 -1.43 0 -40.14 0 6.41 -16.80 -6.98 0 -8.88 14.22 0 0 -0 
